<svg version="1.1" xmlns="http://www.w3.org/2000/svg" xmlns:xlink="http://www.w3.org/1999/xlink" stroke-linecap="round" stroke-linejoin="round" stroke-width="0" fill-rule="evenodd" clip-rule="evenodd" id="Sz--XXwV4Z8LgDZ1HzTH_bottom" viewBox="114680.9999985 -120396.053 88013.3530015 35054.4040004" width="88.0133530015mm" height="35.0544040004mm" class="w-100 h-100"><defs><style>.Sz--XXwV4Z8LgDZ1HzTH_fr4 {color: #666666;}
.Sz--XXwV4Z8LgDZ1HzTH_cu {color: #cccccc;}
.Sz--XXwV4Z8LgDZ1HzTH_cf {color: #cc9933;}
.Sz--XXwV4Z8LgDZ1HzTH_sm {color: #004200; opacity: 0.75;}
.Sz--XXwV4Z8LgDZ1HzTH_ss {color: #ffffff;}
.Sz--XXwV4Z8LgDZ1HzTH_sp {color: #999999;}
.Sz--XXwV4Z8LgDZ1HzTH_out {color: #000000;}</style><circle cx="0" cy="0" r="725" id="JNdUcQCKscLOnQJ-A3oP_pad-10"/><rect x="-600" y="-950" width="1200" height="1900" rx="600" ry="600" id="JNdUcQCKscLOnQJ-A3oP_pad-11"/><circle cx="0" cy="0" r="2500" id="JNdUcQCKscLOnQJ-A3oP_pad-12"/><circle cx="0" cy="0" r="500" id="JNdUcQCKscLOnQJ-A3oP_pad-13"/><rect x="-685" y="-685" width="1370" height="1370" id="JNdUcQCKscLOnQJ-A3oP_pad-14"/><circle cx="0" cy="0" r="685" id="JNdUcQCKscLOnQJ-A3oP_pad-15"/><circle cx="0" cy="0" r="725" id="WEtBlZGasSPqKKTpJ3fP_pad-10"/><rect x="-600" y="-950" width="1200" height="1900" rx="600" ry="600" id="WEtBlZGasSPqKKTpJ3fP_pad-11"/><circle cx="0" cy="0" r="2500" id="WEtBlZGasSPqKKTpJ3fP_pad-12"/><rect x="-685" y="-685" width="1370" height="1370" id="WEtBlZGasSPqKKTpJ3fP_pad-13"/><circle cx="0" cy="0" r="685" id="WEtBlZGasSPqKKTpJ3fP_pad-14"/><circle cx="0" cy="0" r="150" id="WEtBlZGasSPqKKTpJ3fP_pad-15"/><circle cx="0" cy="0" r="300" id="WEtBlZGasSPqKKTpJ3fP_pad-16"/><circle cx="0" cy="0" r="400" id="WEtBlZGasSPqKKTpJ3fP_pad-17"/><circle cx="0" cy="0" r="250" id="WEtBlZGasSPqKKTpJ3fP_pad-18"/><circle cx="0" cy="0" r="500" id="U8Oa-INsqwRUCoIp8AEU_pad-10"/><g id="Sz--XXwV4Z8LgDZ1HzTH_bottom_soldermask"><use xlink:href="#JNdUcQCKscLOnQJ-A3oP_pad-10" x="123357" y="-90870.5"/><use xlink:href="#JNdUcQCKscLOnQJ-A3oP_pad-11" x="122357" y="-88170.5"/><use xlink:href="#JNdUcQCKscLOnQJ-A3oP_pad-11" x="129357" y="-88170.5"/><use xlink:href="#JNdUcQCKscLOnQJ-A3oP_pad-10" x="128357" y="-90870.5"/><use xlink:href="#JNdUcQCKscLOnQJ-A3oP_pad-12" x="118110" y="-88770.649"/><use xlink:href="#JNdUcQCKscLOnQJ-A3oP_pad-13" x="119155" y="-97920"/><use xlink:href="#JNdUcQCKscLOnQJ-A3oP_pad-13" x="119155" y="-105920"/><use xlink:href="#JNdUcQCKscLOnQJ-A3oP_pad-14" x="135923.5" y="-118364"/><use xlink:href="#JNdUcQCKscLOnQJ-A3oP_pad-15" x="135923.5" y="-115824"/><use xlink:href="#JNdUcQCKscLOnQJ-A3oP_pad-15" x="138463.5" y="-118364"/><use xlink:href="#JNdUcQCKscLOnQJ-A3oP_pad-15" x="138463.5" y="-115824"/><use xlink:href="#JNdUcQCKscLOnQJ-A3oP_pad-15" x="141003.5" y="-118364"/><use xlink:href="#JNdUcQCKscLOnQJ-A3oP_pad-15" x="141003.5" y="-115824"/><use xlink:href="#JNdUcQCKscLOnQJ-A3oP_pad-15" x="143543.5" y="-118364"/><use xlink:href="#JNdUcQCKscLOnQJ-A3oP_pad-15" x="143543.5" y="-115824"/><use xlink:href="#JNdUcQCKscLOnQJ-A3oP_pad-15" x="146083.5" y="-118364"/><use xlink:href="#JNdUcQCKscLOnQJ-A3oP_pad-15" x="146083.5" y="-115824"/><use xlink:href="#JNdUcQCKscLOnQJ-A3oP_pad-15" x="148623.5" y="-118364"/><use xlink:href="#JNdUcQCKscLOnQJ-A3oP_pad-15" x="148623.5" y="-115824"/><use xlink:href="#JNdUcQCKscLOnQJ-A3oP_pad-15" x="151163.5" y="-118364"/><use xlink:href="#JNdUcQCKscLOnQJ-A3oP_pad-15" x="151163.5" y="-115824"/><use xlink:href="#JNdUcQCKscLOnQJ-A3oP_pad-15" x="153703.5" y="-118364"/><use xlink:href="#JNdUcQCKscLOnQJ-A3oP_pad-15" x="153703.5" y="-115824"/><use xlink:href="#JNdUcQCKscLOnQJ-A3oP_pad-15" x="156243.5" y="-118364"/><use xlink:href="#JNdUcQCKscLOnQJ-A3oP_pad-15" x="156243.5" y="-115824"/><use xlink:href="#JNdUcQCKscLOnQJ-A3oP_pad-15" x="158783.5" y="-118364"/><use xlink:href="#JNdUcQCKscLOnQJ-A3oP_pad-15" x="158783.5" y="-115824"/><use xlink:href="#JNdUcQCKscLOnQJ-A3oP_pad-15" x="161323.5" y="-118364"/><use xlink:href="#JNdUcQCKscLOnQJ-A3oP_pad-15" x="161323.5" y="-115824"/><use xlink:href="#JNdUcQCKscLOnQJ-A3oP_pad-15" x="163863.5" y="-118364"/><use xlink:href="#JNdUcQCKscLOnQJ-A3oP_pad-15" x="163863.5" y="-115824"/><use xlink:href="#JNdUcQCKscLOnQJ-A3oP_pad-15" x="166403.5" y="-118364"/><use xlink:href="#JNdUcQCKscLOnQJ-A3oP_pad-15" x="166403.5" y="-115824"/><use xlink:href="#JNdUcQCKscLOnQJ-A3oP_pad-15" x="168943.5" y="-118364"/><use xlink:href="#JNdUcQCKscLOnQJ-A3oP_pad-15" x="168943.5" y="-115824"/><use xlink:href="#JNdUcQCKscLOnQJ-A3oP_pad-15" x="171483.5" y="-118364"/><use xlink:href="#JNdUcQCKscLOnQJ-A3oP_pad-15" x="171483.5" y="-115824"/><use xlink:href="#JNdUcQCKscLOnQJ-A3oP_pad-15" x="174023.5" y="-118364"/><use xlink:href="#JNdUcQCKscLOnQJ-A3oP_pad-15" x="174023.5" y="-115824"/><use xlink:href="#JNdUcQCKscLOnQJ-A3oP_pad-15" x="176563.5" y="-118364"/><use xlink:href="#JNdUcQCKscLOnQJ-A3oP_pad-15" x="176563.5" y="-115824"/><use xlink:href="#JNdUcQCKscLOnQJ-A3oP_pad-15" x="179103.5" y="-118364"/><use xlink:href="#JNdUcQCKscLOnQJ-A3oP_pad-15" x="179103.5" y="-115824"/><use xlink:href="#JNdUcQCKscLOnQJ-A3oP_pad-15" x="181643.5" y="-118364"/><use xlink:href="#JNdUcQCKscLOnQJ-A3oP_pad-15" x="181643.5" y="-115824"/><use xlink:href="#JNdUcQCKscLOnQJ-A3oP_pad-15" x="184183.5" y="-118364"/><use xlink:href="#JNdUcQCKscLOnQJ-A3oP_pad-15" x="184183.5" y="-115824"/><use xlink:href="#JNdUcQCKscLOnQJ-A3oP_pad-15" x="186723.5" y="-118364"/><use xlink:href="#JNdUcQCKscLOnQJ-A3oP_pad-15" x="186723.5" y="-115824"/><use xlink:href="#JNdUcQCKscLOnQJ-A3oP_pad-15" x="189263.5" y="-118364"/><use xlink:href="#JNdUcQCKscLOnQJ-A3oP_pad-15" x="189263.5" y="-115824"/><use xlink:href="#JNdUcQCKscLOnQJ-A3oP_pad-15" x="191803.5" y="-118364"/><use xlink:href="#JNdUcQCKscLOnQJ-A3oP_pad-15" x="191803.5" y="-115824"/><use xlink:href="#JNdUcQCKscLOnQJ-A3oP_pad-15" x="194343.5" y="-118364"/><use xlink:href="#JNdUcQCKscLOnQJ-A3oP_pad-15" x="194343.5" y="-115824"/><use xlink:href="#JNdUcQCKscLOnQJ-A3oP_pad-12" x="199263" y="-88770.649"/><use xlink:href="#JNdUcQCKscLOnQJ-A3oP_pad-12" x="199263" y="-116964.649"/><use xlink:href="#JNdUcQCKscLOnQJ-A3oP_pad-12" x="118110" y="-116964.649"/></g><g id="Sz--XXwV4Z8LgDZ1HzTH_bottom_copper"><use xlink:href="#WEtBlZGasSPqKKTpJ3fP_pad-10" x="123357" y="-90870.5"/><use xlink:href="#WEtBlZGasSPqKKTpJ3fP_pad-11" x="122357" y="-88170.5"/><use xlink:href="#WEtBlZGasSPqKKTpJ3fP_pad-11" x="129357" y="-88170.5"/><use xlink:href="#WEtBlZGasSPqKKTpJ3fP_pad-10" x="128357" y="-90870.5"/><use xlink:href="#WEtBlZGasSPqKKTpJ3fP_pad-12" x="118110" y="-88770.649"/><use xlink:href="#WEtBlZGasSPqKKTpJ3fP_pad-13" x="135923.5" y="-118364"/><use xlink:href="#WEtBlZGasSPqKKTpJ3fP_pad-14" x="135923.5" y="-115824"/><use xlink:href="#WEtBlZGasSPqKKTpJ3fP_pad-14" x="138463.5" y="-118364"/><use xlink:href="#WEtBlZGasSPqKKTpJ3fP_pad-14" x="138463.5" y="-115824"/><use xlink:href="#WEtBlZGasSPqKKTpJ3fP_pad-14" x="141003.5" y="-118364"/><use xlink:href="#WEtBlZGasSPqKKTpJ3fP_pad-14" x="141003.5" y="-115824"/><use xlink:href="#WEtBlZGasSPqKKTpJ3fP_pad-14" x="143543.5" y="-118364"/><use xlink:href="#WEtBlZGasSPqKKTpJ3fP_pad-14" x="143543.5" y="-115824"/><use xlink:href="#WEtBlZGasSPqKKTpJ3fP_pad-14" x="146083.5" y="-118364"/><use xlink:href="#WEtBlZGasSPqKKTpJ3fP_pad-14" x="146083.5" y="-115824"/><use xlink:href="#WEtBlZGasSPqKKTpJ3fP_pad-14" x="148623.5" y="-118364"/><use xlink:href="#WEtBlZGasSPqKKTpJ3fP_pad-14" x="148623.5" y="-115824"/><use xlink:href="#WEtBlZGasSPqKKTpJ3fP_pad-14" x="151163.5" y="-118364"/><use xlink:href="#WEtBlZGasSPqKKTpJ3fP_pad-14" x="151163.5" y="-115824"/><use xlink:href="#WEtBlZGasSPqKKTpJ3fP_pad-14" x="153703.5" y="-118364"/><use xlink:href="#WEtBlZGasSPqKKTpJ3fP_pad-14" x="153703.5" y="-115824"/><use xlink:href="#WEtBlZGasSPqKKTpJ3fP_pad-14" x="156243.5" y="-118364"/><use xlink:href="#WEtBlZGasSPqKKTpJ3fP_pad-14" x="156243.5" y="-115824"/><use xlink:href="#WEtBlZGasSPqKKTpJ3fP_pad-14" x="158783.5" y="-118364"/><use xlink:href="#WEtBlZGasSPqKKTpJ3fP_pad-14" x="158783.5" y="-115824"/><use xlink:href="#WEtBlZGasSPqKKTpJ3fP_pad-14" x="161323.5" y="-118364"/><use xlink:href="#WEtBlZGasSPqKKTpJ3fP_pad-14" x="161323.5" y="-115824"/><use xlink:href="#WEtBlZGasSPqKKTpJ3fP_pad-14" x="163863.5" y="-118364"/><use xlink:href="#WEtBlZGasSPqKKTpJ3fP_pad-14" x="163863.5" y="-115824"/><use xlink:href="#WEtBlZGasSPqKKTpJ3fP_pad-14" x="166403.5" y="-118364"/><use xlink:href="#WEtBlZGasSPqKKTpJ3fP_pad-14" x="166403.5" y="-115824"/><use xlink:href="#WEtBlZGasSPqKKTpJ3fP_pad-14" x="168943.5" y="-118364"/><use xlink:href="#WEtBlZGasSPqKKTpJ3fP_pad-14" x="168943.5" y="-115824"/><use xlink:href="#WEtBlZGasSPqKKTpJ3fP_pad-14" x="171483.5" y="-118364"/><use xlink:href="#WEtBlZGasSPqKKTpJ3fP_pad-14" x="171483.5" y="-115824"/><use xlink:href="#WEtBlZGasSPqKKTpJ3fP_pad-14" x="174023.5" y="-118364"/><use xlink:href="#WEtBlZGasSPqKKTpJ3fP_pad-14" x="174023.5" y="-115824"/><use xlink:href="#WEtBlZGasSPqKKTpJ3fP_pad-14" x="176563.5" y="-118364"/><use xlink:href="#WEtBlZGasSPqKKTpJ3fP_pad-14" x="176563.5" y="-115824"/><use xlink:href="#WEtBlZGasSPqKKTpJ3fP_pad-14" x="179103.5" y="-118364"/><use xlink:href="#WEtBlZGasSPqKKTpJ3fP_pad-14" x="179103.5" y="-115824"/><use xlink:href="#WEtBlZGasSPqKKTpJ3fP_pad-14" x="181643.5" y="-118364"/><use xlink:href="#WEtBlZGasSPqKKTpJ3fP_pad-14" x="181643.5" y="-115824"/><use xlink:href="#WEtBlZGasSPqKKTpJ3fP_pad-14" x="184183.5" y="-118364"/><use xlink:href="#WEtBlZGasSPqKKTpJ3fP_pad-14" x="184183.5" y="-115824"/><use xlink:href="#WEtBlZGasSPqKKTpJ3fP_pad-14" x="186723.5" y="-118364"/><use xlink:href="#WEtBlZGasSPqKKTpJ3fP_pad-14" x="186723.5" y="-115824"/><use xlink:href="#WEtBlZGasSPqKKTpJ3fP_pad-14" x="189263.5" y="-118364"/><use xlink:href="#WEtBlZGasSPqKKTpJ3fP_pad-14" x="189263.5" y="-115824"/><use xlink:href="#WEtBlZGasSPqKKTpJ3fP_pad-14" x="191803.5" y="-118364"/><use xlink:href="#WEtBlZGasSPqKKTpJ3fP_pad-14" x="191803.5" y="-115824"/><use xlink:href="#WEtBlZGasSPqKKTpJ3fP_pad-14" x="194343.5" y="-118364"/><use xlink:href="#WEtBlZGasSPqKKTpJ3fP_pad-14" x="194343.5" y="-115824"/><use xlink:href="#WEtBlZGasSPqKKTpJ3fP_pad-15" x="188360" y="-100670"/><use xlink:href="#WEtBlZGasSPqKKTpJ3fP_pad-15" x="188360" y="-102070"/><use xlink:href="#WEtBlZGasSPqKKTpJ3fP_pad-15" x="187660" y="-99970"/><use xlink:href="#WEtBlZGasSPqKKTpJ3fP_pad-15" x="187660" y="-101370"/><use xlink:href="#WEtBlZGasSPqKKTpJ3fP_pad-15" x="187660" y="-102770"/><use xlink:href="#WEtBlZGasSPqKKTpJ3fP_pad-15" x="186960" y="-100670"/><use xlink:href="#WEtBlZGasSPqKKTpJ3fP_pad-15" x="186960" y="-102070"/><use xlink:href="#WEtBlZGasSPqKKTpJ3fP_pad-15" x="186260" y="-99970"/><use xlink:href="#WEtBlZGasSPqKKTpJ3fP_pad-15" x="186260" y="-101370"/><use xlink:href="#WEtBlZGasSPqKKTpJ3fP_pad-15" x="186260" y="-102770"/><use xlink:href="#WEtBlZGasSPqKKTpJ3fP_pad-15" x="185560" y="-100670"/><use xlink:href="#WEtBlZGasSPqKKTpJ3fP_pad-15" x="185560" y="-102070"/><use xlink:href="#WEtBlZGasSPqKKTpJ3fP_pad-12" x="199263" y="-88770.649"/><use xlink:href="#WEtBlZGasSPqKKTpJ3fP_pad-12" x="199263" y="-116964.649"/><use xlink:href="#WEtBlZGasSPqKKTpJ3fP_pad-12" x="118110" y="-116964.649"/><use xlink:href="#WEtBlZGasSPqKKTpJ3fP_pad-16" x="144703.8" y="-94945.2"/><use xlink:href="#WEtBlZGasSPqKKTpJ3fP_pad-16" x="152704.8" y="-88833.9"/><use xlink:href="#WEtBlZGasSPqKKTpJ3fP_pad-16" x="143687.8" y="-104190.8"/><use xlink:href="#WEtBlZGasSPqKKTpJ3fP_pad-16" x="136601.2" y="-86817.2"/><use xlink:href="#WEtBlZGasSPqKKTpJ3fP_pad-17" x="140106.4" y="-109067.6"/><use xlink:href="#WEtBlZGasSPqKKTpJ3fP_pad-16" x="188595" y="-91160.6"/><use xlink:href="#WEtBlZGasSPqKKTpJ3fP_pad-16" x="147345.4" y="-110998"/><use xlink:href="#WEtBlZGasSPqKKTpJ3fP_pad-16" x="122047" y="-116763.8"/><use xlink:href="#WEtBlZGasSPqKKTpJ3fP_pad-16" x="131267.2" y="-86766.4"/><use xlink:href="#WEtBlZGasSPqKKTpJ3fP_pad-16" x="154152.6" y="-112674.4"/><use xlink:href="#WEtBlZGasSPqKKTpJ3fP_pad-16" x="133045.2" y="-92227.4"/><use xlink:href="#WEtBlZGasSPqKKTpJ3fP_pad-17" x="137922" y="-95758"/><use xlink:href="#WEtBlZGasSPqKKTpJ3fP_pad-16" x="146481.8" y="-100874.3"/><use xlink:href="#WEtBlZGasSPqKKTpJ3fP_pad-16" x="164287.2" y="-94869"/><use xlink:href="#WEtBlZGasSPqKKTpJ3fP_pad-16" x="176987.2" y="-95453.2"/><use xlink:href="#WEtBlZGasSPqKKTpJ3fP_pad-16" x="137769.6" y="-103337.3"/><use xlink:href="#WEtBlZGasSPqKKTpJ3fP_pad-16" x="148107.4" y="-98425"/><use xlink:href="#WEtBlZGasSPqKKTpJ3fP_pad-16" x="147040.6" y="-105206.8"/><use xlink:href="#WEtBlZGasSPqKKTpJ3fP_pad-16" x="177749.2" y="-90678"/><use xlink:href="#WEtBlZGasSPqKKTpJ3fP_pad-16" x="168579.8" y="-90474.8"/><use xlink:href="#WEtBlZGasSPqKKTpJ3fP_pad-16" x="169875.2" y="-99999.8"/><use xlink:href="#WEtBlZGasSPqKKTpJ3fP_pad-16" x="136253.489" y="-113065.5"/><use xlink:href="#WEtBlZGasSPqKKTpJ3fP_pad-16" x="121234.2" y="-95123"/><use xlink:href="#WEtBlZGasSPqKKTpJ3fP_pad-16" x="145973.8" y="-106908.6"/><use xlink:href="#WEtBlZGasSPqKKTpJ3fP_pad-16" x="151892" y="-108381.8"/><use xlink:href="#WEtBlZGasSPqKKTpJ3fP_pad-16" x="119557.8" y="-111760"/><use xlink:href="#WEtBlZGasSPqKKTpJ3fP_pad-16" x="127685.8" y="-95123"/><use xlink:href="#WEtBlZGasSPqKKTpJ3fP_pad-16" x="140233.4" y="-92151.2"/><use xlink:href="#WEtBlZGasSPqKKTpJ3fP_pad-16" x="128066.8" y="-99618.8"/><use xlink:href="#WEtBlZGasSPqKKTpJ3fP_pad-16" x="134213.6" y="-96926.4"/><use xlink:href="#WEtBlZGasSPqKKTpJ3fP_pad-16" x="194741.8" y="-95554.8"/><use xlink:href="#WEtBlZGasSPqKKTpJ3fP_pad-16" x="191947.8" y="-90347.8"/><use xlink:href="#WEtBlZGasSPqKKTpJ3fP_pad-16" x="164439.6" y="-109626.4"/><use xlink:href="#WEtBlZGasSPqKKTpJ3fP_pad-16" x="180340" y="-86741"/><use xlink:href="#WEtBlZGasSPqKKTpJ3fP_pad-16" x="149987" y="-105079.8"/><use xlink:href="#WEtBlZGasSPqKKTpJ3fP_pad-16" x="191719.2" y="-87198.2"/><use xlink:href="#WEtBlZGasSPqKKTpJ3fP_pad-16" x="142697.2" y="-112344.2"/><use xlink:href="#WEtBlZGasSPqKKTpJ3fP_pad-16" x="194767.2" y="-110058.2"/><use xlink:href="#WEtBlZGasSPqKKTpJ3fP_pad-16" x="129159" y="-108204"/><use xlink:href="#WEtBlZGasSPqKKTpJ3fP_pad-16" x="151892" y="-98602.8"/><use xlink:href="#WEtBlZGasSPqKKTpJ3fP_pad-16" x="183819.8" y="-90144.6"/><use xlink:href="#WEtBlZGasSPqKKTpJ3fP_pad-16" x="158546.8" y="-112522"/><use xlink:href="#WEtBlZGasSPqKKTpJ3fP_pad-16" x="160807.4" y="-97205.8"/><use xlink:href="#WEtBlZGasSPqKKTpJ3fP_pad-16" x="158419.8" y="-96164.4"/><use xlink:href="#WEtBlZGasSPqKKTpJ3fP_pad-16" x="154635.2" y="-93167.2"/><use xlink:href="#WEtBlZGasSPqKKTpJ3fP_pad-16" x="154686" y="-89027"/><use xlink:href="#WEtBlZGasSPqKKTpJ3fP_pad-16" x="124053.6" y="-117373.4"/><use xlink:href="#WEtBlZGasSPqKKTpJ3fP_pad-16" x="123088.4" y="-106934"/><use xlink:href="#WEtBlZGasSPqKKTpJ3fP_pad-18" x="146024.6" y="-104216.2"/><use xlink:href="#WEtBlZGasSPqKKTpJ3fP_pad-18" x="143713.2" y="-103022.4"/><use xlink:href="#WEtBlZGasSPqKKTpJ3fP_pad-18" x="177520.6" y="-86995"/><use xlink:href="#WEtBlZGasSPqKKTpJ3fP_pad-18" x="182473.6" y="-87376"/><use xlink:href="#WEtBlZGasSPqKKTpJ3fP_pad-16" x="135569.9" y="-90743.3"/><use xlink:href="#WEtBlZGasSPqKKTpJ3fP_pad-16" x="131103.9" y="-90652.6"/><use xlink:href="#WEtBlZGasSPqKKTpJ3fP_pad-16" x="127533.4" y="-92125.8"/><use xlink:href="#WEtBlZGasSPqKKTpJ3fP_pad-18" x="124739.4" y="-92227.4"/><use xlink:href="#WEtBlZGasSPqKKTpJ3fP_pad-18" x="136626.6" y="-88214.2"/><use xlink:href="#WEtBlZGasSPqKKTpJ3fP_pad-18" x="158115" y="-92329"/><use xlink:href="#WEtBlZGasSPqKKTpJ3fP_pad-18" x="130429" y="-109220"/><use xlink:href="#WEtBlZGasSPqKKTpJ3fP_pad-18" x="129641.6" y="-106121.2"/><use xlink:href="#WEtBlZGasSPqKKTpJ3fP_pad-18" x="183337.2" y="-110134.4"/><use xlink:href="#WEtBlZGasSPqKKTpJ3fP_pad-18" x="127983.044" y="-104691.244"/><use xlink:href="#WEtBlZGasSPqKKTpJ3fP_pad-18" x="127939.8" y="-102616"/><use xlink:href="#WEtBlZGasSPqKKTpJ3fP_pad-18" x="193497.2" y="-110058.2"/><use xlink:href="#WEtBlZGasSPqKKTpJ3fP_pad-18" x="185877.2" y="-105029"/><use xlink:href="#WEtBlZGasSPqKKTpJ3fP_pad-18" x="128041.4" y="-98501.2"/><use xlink:href="#WEtBlZGasSPqKKTpJ3fP_pad-18" x="182194.2" y="-113064.3"/><use xlink:href="#WEtBlZGasSPqKKTpJ3fP_pad-18" x="147040.6" y="-92176.6"/><use xlink:href="#WEtBlZGasSPqKKTpJ3fP_pad-18" x="145237.2" y="-92202"/><use xlink:href="#WEtBlZGasSPqKKTpJ3fP_pad-18" x="180914.9" y="-113064.3"/><use xlink:href="#WEtBlZGasSPqKKTpJ3fP_pad-18" x="139039.6" y="-92125.8"/><use xlink:href="#WEtBlZGasSPqKKTpJ3fP_pad-18" x="164160.2" y="-91236.8"/><use xlink:href="#WEtBlZGasSPqKKTpJ3fP_pad-18" x="177520.6" y="-89077.8"/><use xlink:href="#WEtBlZGasSPqKKTpJ3fP_pad-18" x="135864.6" y="-92176.6"/><use xlink:href="#WEtBlZGasSPqKKTpJ3fP_pad-18" x="170611.8" y="-86944.2"/><use xlink:href="#WEtBlZGasSPqKKTpJ3fP_pad-18" x="167335.2" y="-88773"/><use xlink:href="#WEtBlZGasSPqKKTpJ3fP_pad-18" x="133223" y="-115468.4"/><use xlink:href="#WEtBlZGasSPqKKTpJ3fP_pad-18" x="178257.2" y="-113064.3"/><use xlink:href="#WEtBlZGasSPqKKTpJ3fP_pad-18" x="173405.8" y="-96215.2"/><use xlink:href="#WEtBlZGasSPqKKTpJ3fP_pad-18" x="176098.2" y="-90068.4"/><use xlink:href="#WEtBlZGasSPqKKTpJ3fP_pad-18" x="141732" y="-93243.4"/><use xlink:href="#WEtBlZGasSPqKKTpJ3fP_pad-18" x="136423.4" y="-100685.6"/><use xlink:href="#WEtBlZGasSPqKKTpJ3fP_pad-18" x="158572.2" y="-108686.6"/><use xlink:href="#WEtBlZGasSPqKKTpJ3fP_pad-18" x="176758.6" y="-109626.4"/><use xlink:href="#WEtBlZGasSPqKKTpJ3fP_pad-18" x="187985.4" y="-113639.6"/><use xlink:href="#WEtBlZGasSPqKKTpJ3fP_pad-18" x="147370.8" y="-112268"/><use xlink:href="#WEtBlZGasSPqKKTpJ3fP_pad-18" x="192227.2" y="-113106.2"/><use xlink:href="#WEtBlZGasSPqKKTpJ3fP_pad-18" x="150749" y="-113766.6"/><use xlink:href="#WEtBlZGasSPqKKTpJ3fP_pad-18" x="125628.4" y="-110921.8"/><use xlink:href="#WEtBlZGasSPqKKTpJ3fP_pad-18" x="183311.8" y="-92608.4"/><use xlink:href="#WEtBlZGasSPqKKTpJ3fP_pad-18" x="127533.4" y="-112750.6"/><use xlink:href="#WEtBlZGasSPqKKTpJ3fP_pad-18" x="184581.8" y="-92608.4"/><use xlink:href="#WEtBlZGasSPqKKTpJ3fP_pad-18" x="137490.2" y="-111607.6"/><use xlink:href="#WEtBlZGasSPqKKTpJ3fP_pad-18" x="180797.2" y="-92887.8"/><use xlink:href="#WEtBlZGasSPqKKTpJ3fP_pad-18" x="162915.6" y="-86311.149"/><use xlink:href="#WEtBlZGasSPqKKTpJ3fP_pad-18" x="162839.4" y="-94640.4"/><use xlink:href="#WEtBlZGasSPqKKTpJ3fP_pad-18" x="182067.2" y="-95605.6"/><use xlink:href="#WEtBlZGasSPqKKTpJ3fP_pad-18" x="132969" y="-112572.8"/><use xlink:href="#WEtBlZGasSPqKKTpJ3fP_pad-18" x="150799.8" y="-95173.8"/><use xlink:href="#WEtBlZGasSPqKKTpJ3fP_pad-18" x="167411.4" y="-95377"/><use xlink:href="#WEtBlZGasSPqKKTpJ3fP_pad-18" x="169570.4" y="-95478.6"/><use xlink:href="#WEtBlZGasSPqKKTpJ3fP_pad-18" x="144780" y="-86639.4"/><use xlink:href="#WEtBlZGasSPqKKTpJ3fP_pad-18" x="164185.6" y="-92278.2"/><use xlink:href="#WEtBlZGasSPqKKTpJ3fP_pad-18" x="178206.4" y="-107823"/><use xlink:href="#WEtBlZGasSPqKKTpJ3fP_pad-18" x="134493" y="-102768.4"/><use xlink:href="#WEtBlZGasSPqKKTpJ3fP_pad-18" x="135229.6" y="-112801.4"/><use xlink:href="#WEtBlZGasSPqKKTpJ3fP_pad-18" x="139369.8" y="-112395"/><use xlink:href="#WEtBlZGasSPqKKTpJ3fP_pad-18" x="185877.2" y="-96062.8"/><use xlink:href="#WEtBlZGasSPqKKTpJ3fP_pad-18" x="167665.4" y="-111937.8"/><use xlink:href="#WEtBlZGasSPqKKTpJ3fP_pad-18" x="146837.4" y="-88290.4"/><use xlink:href="#WEtBlZGasSPqKKTpJ3fP_pad-18" x="179527.2" y="-95605.6"/><use xlink:href="#WEtBlZGasSPqKKTpJ3fP_pad-18" x="178257.2" y="-99898.2"/><use xlink:href="#WEtBlZGasSPqKKTpJ3fP_pad-18" x="167716.2" y="-110887.1"/><use xlink:href="#WEtBlZGasSPqKKTpJ3fP_pad-18" x="179476.4" y="-110032.8"/><use xlink:href="#WEtBlZGasSPqKKTpJ3fP_pad-18" x="158572.2" y="-111404.4"/><use xlink:href="#WEtBlZGasSPqKKTpJ3fP_pad-18" x="136931.4" y="-92125.8"/><use xlink:href="#WEtBlZGasSPqKKTpJ3fP_pad-18" x="188417.2" y="-109728"/><use xlink:href="#WEtBlZGasSPqKKTpJ3fP_pad-18" x="137922" y="-92125.8"/><use xlink:href="#WEtBlZGasSPqKKTpJ3fP_pad-18" x="187680.6" y="-105029"/><use xlink:href="#WEtBlZGasSPqKKTpJ3fP_pad-18" x="190957.2" y="-110083.6"/><use xlink:href="#WEtBlZGasSPqKKTpJ3fP_pad-18" x="136448.8" y="-105918"/><use xlink:href="#WEtBlZGasSPqKKTpJ3fP_pad-18" x="135737.6" y="-106553"/><use xlink:href="#WEtBlZGasSPqKKTpJ3fP_pad-18" x="135737.6" y="-107467.4"/><use xlink:href="#WEtBlZGasSPqKKTpJ3fP_pad-18" x="135737.6" y="-108280.2"/><use xlink:href="#WEtBlZGasSPqKKTpJ3fP_pad-18" x="135737.6" y="-109220"/><use xlink:href="#WEtBlZGasSPqKKTpJ3fP_pad-18" x="135763" y="-110098.1"/><use xlink:href="#WEtBlZGasSPqKKTpJ3fP_pad-18" x="144830.8" y="-109965.5"/><use xlink:href="#WEtBlZGasSPqKKTpJ3fP_pad-18" x="147294.6" y="-109499.4"/><use xlink:href="#WEtBlZGasSPqKKTpJ3fP_pad-18" x="145567.4" y="-108839"/><use xlink:href="#WEtBlZGasSPqKKTpJ3fP_pad-18" x="147015.2" y="-108127.8"/><use xlink:href="#WEtBlZGasSPqKKTpJ3fP_pad-18" x="143662.4" y="-107721.4"/><use xlink:href="#WEtBlZGasSPqKKTpJ3fP_pad-18" x="142697.2" y="-106299"/><use xlink:href="#WEtBlZGasSPqKKTpJ3fP_pad-18" x="140131.8" y="-105537"/><use xlink:href="#WEtBlZGasSPqKKTpJ3fP_pad-18" x="139319" y="-105537"/><use xlink:href="#WEtBlZGasSPqKKTpJ3fP_pad-18" x="132029.2" y="-118745"/><use xlink:href="#WEtBlZGasSPqKKTpJ3fP_pad-18" x="137515.6" y="-105918"/><use xlink:href="#WEtBlZGasSPqKKTpJ3fP_pad-18" x="132029.2" y="-116281.2"/><use xlink:href="#WEtBlZGasSPqKKTpJ3fP_pad-18" x="168452.8" y="-103733.6"/><use xlink:href="#WEtBlZGasSPqKKTpJ3fP_pad-18" x="168427.4" y="-102793.8"/><use xlink:href="#WEtBlZGasSPqKKTpJ3fP_pad-18" x="168427.4" y="-101854"/><use xlink:href="#WEtBlZGasSPqKKTpJ3fP_pad-18" x="168427.4" y="-100939.6"/><use xlink:href="#WEtBlZGasSPqKKTpJ3fP_pad-18" x="192364.417" y="-108183.661"/><use xlink:href="#WEtBlZGasSPqKKTpJ3fP_pad-18" x="190508.9" y="-108229.4"/><use xlink:href="#WEtBlZGasSPqKKTpJ3fP_pad-18" x="189357" y="-108229.4"/><use xlink:href="#WEtBlZGasSPqKKTpJ3fP_pad-18" x="192938.4" y="-106349.8"/><use xlink:href="#WEtBlZGasSPqKKTpJ3fP_pad-18" x="162280.6" y="-98450.4"/><use xlink:href="#WEtBlZGasSPqKKTpJ3fP_pad-18" x="175717.2" y="-109829.6"/><path d="M 123088.4 -106934 123088.4 -116408.2 124053.6 -117373.4 M 178435 -93980 178435 -96113.6 M 158115 -92329 158877 -93091 177546 -93091 178435 -93980 M 184454.8 -113012.7 181643.5 -115824 M 178435 -96113.6 184454.8 -102133.4 184454.8 -113012.7 M 155803.6 -92278.2 153263.6 -92278.2 M 152527 -93014.8 147878.8 -93014.8 M 157327.6 -93802.2 155803.6 -92278.2 M 177368.2 -96367.6 175590.2 -96367.6 M 147878.8 -93014.8 147040.6 -92176.6 M 175590.2 -96367.6 173024.8 -93802.2 157327.6 -93802.2 M 153263.6 -92278.2 152527 -93014.8 M 182194.2 -113064.3 182194.2 -101193.6 177368.2 -96367.6 M 145237.2 -92202 145237.2 -93472 M 146253.2 -94488 161417 -94488 M 145237.2 -93472 146253.2 -94488 M 181330.6 -112648.6 180914.9 -113064.3 M 164007.8 -97078.8 176707.8 -97078.8 M 161417 -94488 164007.8 -97078.8 M 181330.6 -101701.6 181330.6 -112648.6 M 176707.8 -97078.8 181330.6 -101701.6" fill="none" stroke-width="300"/><path d="M 139039.6 -92125.8 139039.6 -91617.8 M 163931.6 -91465.4 164160.2 -91236.8 M 139039.6 -91617.8 139192 -91465.4 163931.6 -91465.4 M 136296.4 -91744.8 136296.4 -89814.4 136550.4 -89560.4 M 153035 -89560.4 154432 -88163.4 M 135864.6 -92176.6 136296.4 -91744.8 M 136550.4 -89560.4 153035 -89560.4 M 154432 -88163.4 155397.2 -88163.4 156006.8 -88773 167335.2 -88773" fill="none" stroke-width="200"/><path d="M 125628.4 -110921.8 125628.4 -95224.6 M 129006.6 -94107 134213.6 -88900 M 183311.8 -91490.8 183311.8 -92608.4 M 125628.4 -95224.6 126746 -94107 M 169341.8 -87934.8 169545 -88138 M 158623 -86791.8 159766 -87934.8 M 169545 -88138 179959 -88138 M 152323.8 -86791.8 158623 -86791.8 M 159766 -87934.8 169341.8 -87934.8 M 126746 -94107 129006.6 -94107 M 150215.6 -88900 152323.8 -86791.8 M 179959 -88138 183311.8 -91490.8 M 134213.6 -88900 150215.6 -88900 M 134188.2 -85725 160121.6 -85725 M 161552 -87155.4 164253.8 -87155.4 M 129870.2 -90043 134188.2 -85725 M 165684.2 -85725 183794.4 -85725 184937.4 -86868 M 124358.4 -94589.6 125704.6 -93243.4 M 160121.6 -85725 161552 -87155.4 M 125704.6 -93243.4 128473.2 -93243.4 129870.2 -91846.4 M 184937.4 -92252.8 184581.8 -92608.4 M 124358.4 -111328.2 124358.4 -94589.6 M 164253.8 -87155.4 165684.2 -85725 M 184937.4 -86868 184937.4 -92252.8 M 125780.8 -112750.6 124358.4 -111328.2 M 129870.2 -91846.4 129870.2 -90043 M 127533.4 -112750.6 125780.8 -112750.6 M 180365.4 -114249.2 180365.4 -117102.1 M 150799.8 -95173.8 160655 -95173.8 M 174777.4 -97764.6 180492.4 -103479.6 M 179933.6 -113817.4 180365.4 -114249.2 M 180492.4 -103479.6 180492.4 -111633 M 160655 -95173.8 163245.8 -97764.6 M 179933.6 -112191.8 179933.6 -113817.4 M 180365.4 -117102.1 179103.5 -118364 M 180492.4 -111633 179933.6 -112191.8 M 163245.8 -97764.6 174777.4 -97764.6" fill="none" stroke-width="300"/><path d="M 169570.4 -95478.6 167513 -95478.6 167411.4 -95377" fill="none" stroke-width="150"/><path d="M 164007.8 -99110.8 161594.8 -101523.8 137236.2 -101523.8 M 174091.6 -99949 173253.4 -99110.8 M 174777.4 -107823 174091.6 -107137.2 174091.6 -99949 M 137236.2 -101523.8 135991.6 -102768.4 M 178206.4 -107823 174777.4 -107823 M 135991.6 -102768.4 134493 -102768.4 M 173253.4 -99110.8 164007.8 -99110.8 M 191541.4 -94996 191541.4 -104368.6 M 189001.4 -105206.8 188417.2 -105791 M 173751.8 -90617.6 174853.6 -91719.4 M 182702.2 -93827.6 190373 -93827.6 M 156210 -89636.6 172796.2 -89636.6 M 181737 -91719.4 182067.2 -92049.6 M 136931.4 -90728.8 137464.8 -90195.4 M 136931.4 -92125.8 136931.4 -90728.8 M 188417.2 -105791 188417.2 -109728 M 182067.2 -93192.6 182702.2 -93827.6 M 172796.2 -89636.6 173751.8 -90592.2 M 190373 -93827.6 191541.4 -94996 M 190703.2 -105206.8 189001.4 -105206.8 M 174853.6 -91719.4 181737 -91719.4 M 182067.2 -92049.6 182067.2 -93192.6 M 137464.8 -90195.4 155651.2 -90195.4 156210 -89636.6 M 173751.8 -90592.2 173751.8 -90617.6 M 191541.4 -104368.6 190703.2 -105206.8 M 180924.2 -94767.4 178562 -92405.2 M 137922 -91059 137922 -92125.8 M 138125.2 -90855.8 137922 -91059 M 187680.6 -105029 187680.6 -104292.4 M 189204.6 -103886 189890.4 -103200.2 M 187680.6 -104292.4 188087 -103886 M 170764.2 -91389.2 167640 -91389.2 M 171780.2 -92405.2 170764.2 -91389.2 M 188849 -94767.4 180924.2 -94767.4 M 188087 -103886 189204.6 -103886 M 161340.8 -90855.8 138125.2 -90855.8 M 189890.4 -95808.8 188849 -94767.4 M 178562 -92405.2 171780.2 -92405.2 M 161798 -90398.6 161340.8 -90855.8 M 167640 -91389.2 166649.4 -90398.6 M 189890.4 -103200.2 189890.4 -95808.8 M 166649.4 -90398.6 161798 -90398.6" fill="none" stroke-width="300"/><path d="M 132740.4 -105765.6 131140.2 -107365.8 M 132130.8 -114604.8 142324.3 -114604.8 M 136296.4 -105765.6 132740.4 -105765.6 M 136448.8 -105918 136296.4 -105765.6 M 131140.2 -107365.8 131140.2 -113614.2 M 142324.3 -114604.8 143543.5 -115824 M 131140.2 -113614.2 132130.8 -114604.8 M 131800.6 -113360.2 132562.6 -114122.2 M 133197.6 -106553 131800.6 -107950 M 136880.6 -114122.2 137261.6 -113741.2 M 131800.6 -107950 131800.6 -113360.2 M 132562.6 -114122.2 136880.6 -114122.2 M 137261.6 -113741.2 143408.4 -113741.2 144830.8 -115163.6 M 135737.6 -106553 133197.6 -106553 M 144830.8 -115163.6 144830.8 -117111.3 146083.5 -118364 M 144094.2 -113157 146083.5 -115146.3 M 132867.4 -113665 136550.4 -113665 M 137058.4 -113157 144094.2 -113157 M 135737.6 -107467.4 133451.6 -107467.4 M 132334 -113131.6 132867.4 -113665 M 146083.5 -115146.3 146083.5 -115824 M 133451.6 -107467.4 132334 -108585 M 136550.4 -113665 137058.4 -113157 M 132334 -108585 132334 -113131.6 M 133477 -111048.8 134264.4 -111836.2 M 133477 -108686.6 133477 -111048.8 M 137947.4 -110947.2 138607.8 -111607.6 M 133883.4 -108280.2 133477 -108686.6 M 137109.2 -110947.2 137947.4 -110947.2 M 143560.8 -111607.6 147345.4 -115392.2 M 135737.6 -108280.2 133883.4 -108280.2 M 147345.4 -117085.9 148623.5 -118364 M 147345.4 -115392.2 147345.4 -117085.9 M 134264.4 -111836.2 136220.2 -111836.2 137109.2 -110947.2 M 138607.8 -111607.6 143560.8 -111607.6 M 148623.5 -115824 143772.1 -110972.6 M 134696.2 -109220 135737.6 -109220 M 139420.6 -110972.6 138988.8 -110540.8 M 136702.8 -110540.8 136220.2 -111023.4 M 138988.8 -110540.8 136702.8 -110540.8 M 136220.2 -111023.4 134747 -111023.4 M 134442.2 -109474 134696.2 -109220 M 134747 -111023.4 134442.2 -110718.6 134442.2 -109474 M 143772.1 -110972.6 139420.6 -110972.6 M 143829.3 -110098.1 148107.4 -114376.2 M 149885.4 -118008.4 150241 -118364 151163.5 -118364 M 148107.4 -114376.2 148996.4 -114376.2 M 135763 -110098.1 143829.3 -110098.1 M 148996.4 -114376.2 149885.4 -115265.2 149885.4 -118008.4 M 151163.5 -115552.7 151163.5 -115824 M 149504.4 -110617 149504.4 -113893.6 M 144830.8 -109965.5 145075.9 -110210.6 149098 -110210.6 M 149504.4 -113893.6 151163.5 -115552.7 M 149098 -110210.6 149504.4 -110617 M 147294.6 -109499.4 149783.8 -109499.4 150571.2 -110286.8 M 152425.4 -114147.6 152425.4 -117085.9 M 150571.2 -110286.8 150571.2 -112293.4 152425.4 -114147.6 M 152425.4 -117085.9 153703.5 -118364 M 145567.4 -108839 150545.8 -108839 M 153703.5 -114130.3 153703.5 -115824 M 151434.8 -109728 151434.8 -111861.6 153703.5 -114130.3 M 150545.8 -108839 151434.8 -109728 M 154457.4 -107518.2 154990.8 -108051.6 M 154990.8 -117678.2 155676.6 -118364 M 147015.2 -108127.8 147624.8 -107518.2 M 155676.6 -118364 156243.5 -118364 M 154990.8 -108051.6 154990.8 -117678.2 M 147624.8 -107518.2 154457.4 -107518.2 M 156235.4 -107899.2 156235.4 -115815.9 M 146278.6 -107797.6 147294.6 -106781.6 M 155117.8 -106781.6 156235.4 -107899.2 M 143713.2 -107797.6 146278.6 -107797.6 M 156235.4 -115815.9 156243.5 -115824 M 147294.6 -106781.6 155117.8 -106781.6 M 142875 -106121.2 156108.4 -106121.2 157276.8 -107289.6 M 142697.2 -106299 142875 -106121.2 M 157276.8 -107289.6 157276.8 -114317.3 158783.5 -115824 M 140462 -119735.6 141003.5 -119194.1 M 139217.4 -103936.8 129768.6 -103936.8 M 128320.8 -118973.6 129082.8 -119735.6 M 128320.8 -111709.2 128320.8 -118973.6 M 140131.8 -104851.2 139217.4 -103936.8 M 129082.8 -119735.6 140462 -119735.6 M 127457.2 -106248.2 127457.2 -110845.6 128320.8 -111709.2 M 129768.6 -103936.8 127457.2 -106248.2 M 141003.5 -119194.1 141003.5 -118364 M 140131.8 -105537 140131.8 -104851.2 M 129082.8 -110769.4 128295.4 -109982 M 128295.4 -106426 130149.6 -104571.8 M 139661.9 -117170.2 129971.8 -117170.2 M 141003.5 -115824 141003.5 -115828.6 139661.9 -117170.2 M 130149.6 -104571.8 138912.6 -104571.8 M 139319 -104978.2 139319 -105537 M 129971.8 -117170.2 129082.8 -116281.2 129082.8 -110769.4 M 138912.6 -104571.8 139319 -104978.2 M 128295.4 -109982 128295.4 -106426 M 129946.4 -108635.8 129946.4 -107061 M 130479.8 -116281.2 129616.2 -115417.6 M 129616.2 -108966 129946.4 -108635.8 M 131851.4 -105156 136753.6 -105156 M 129616.2 -115417.6 129616.2 -108966 M 136753.6 -105156 137515.6 -105918 M 132029.2 -116281.2 130479.8 -116281.2 M 129946.4 -107061 131851.4 -105156 M 168935.4 -113411 170205.4 -114681 M 174023.5 -117584.7 174023.5 -118364 M 170205.4 -116713 170561 -117068.6 M 168935.4 -104216.2 168935.4 -113411 M 168452.8 -103733.6 168935.4 -104216.2 M 170205.4 -114681 170205.4 -116713 M 173507.4 -117068.6 174023.5 -117584.7 M 170561 -117068.6 173507.4 -117068.6 M 170256.2 -103454.2 170256.2 -113080.8 M 169595.8 -102793.8 170256.2 -103454.2 M 168427.4 -102793.8 169595.8 -102793.8 M 176225.2 -114096.8 176563.5 -114435.1 M 170256.2 -113080.8 171272.2 -114096.8 M 176563.5 -114435.1 176563.5 -115824 M 171272.2 -114096.8 176225.2 -114096.8 M 171577 -112395 172288.2 -113106.2 M 176834.8 -113106.2 177825.4 -114096.8 M 177825.4 -117102.1 176563.5 -118364 M 177825.4 -114096.8 177825.4 -117102.1 M 171577 -102539.8 171577 -112395 M 172288.2 -113106.2 176834.8 -113106.2 M 168427.4 -101854 170891.2 -101854 171577 -102539.8 M 172897.8 -110820.2 172897.8 -101574.6 M 173558.2 -111480.6 172897.8 -110820.2 M 179103.5 -112174.5 178409.6 -111480.6 173558.2 -111480.6 M 172262.8 -100939.6 168427.4 -100939.6 M 179103.5 -115824 179103.5 -112174.5 M 172897.8 -101574.6 172262.8 -100939.6" fill="none" stroke-width="200"/><path d="M 190525.4 -114858.8 190525.4 -117102.1 M 191185.8 -111328.2 191185.8 -114198.4 M 190525.4 -117102.1 189263.5 -118364 M 191185.8 -114198.4 190525.4 -114858.8 M 192364.417 -108183.661 192364.417 -110149.583 191185.8 -111328.2 M 190508.9 -108229.4 190195.2 -108543.1 190195.2 -113842.8 M 189263.5 -114774.5 189263.5 -115824 M 190195.2 -113842.8 189263.5 -114774.5 M 189357 -113563.4 188010.8 -114909.6 188010.8 -117076.7 M 189357 -108229.4 189357 -113563.4 M 188010.8 -117076.7 186723.5 -118364 M 193556.1 -114071.4 194970.4 -114071.4 M 195630.8 -107365.8 194614.8 -106349.8 M 191803.5 -115824 193556.1 -114071.4 M 194614.8 -106349.8 192938.4 -106349.8 M 194970.4 -114071.4 195630.8 -113411 195630.8 -107365.8" fill="none" stroke-width="150"/><path d="M 178866.8 -105892.6 179374.8 -106400.6 179374.8 -108712 179247.8 -108839 M 175412.4 -105308.4 175996.6 -105892.6 M 162280.6 -98450.4 174142.4 -98450.4 M 175996.6 -105892.6 178866.8 -105892.6 M 179247.8 -108839 175920.4 -108839 M 175412.4 -99720.4 175412.4 -105308.4 M 175920.4 -108839 175717.2 -109042.2 175717.2 -109829.6 M 174142.4 -98450.4 175412.4 -99720.4" fill="none" stroke-width="200"/></g><g id="Sz--XXwV4Z8LgDZ1HzTH_bottom_drill1"><use xlink:href="#U8Oa-INsqwRUCoIp8AEU_pad-10" x="119155" y="-97920"/><use xlink:href="#U8Oa-INsqwRUCoIp8AEU_pad-10" x="119155" y="-105920"/></g><clipPath id="Sz--XXwV4Z8LgDZ1HzTH_bottom_outline"><path d="M 114681 -116964.649 A 3428.9490004 3428.9490004 0 0 1 118110 -120393.649 L 199263 -120396 A 3431.353 3431.353 0 0 1 202692 -116837.649 L 202692.051 -88770.649 A 3429.0510004 3429.0510004 0 0 1 199263 -85341.649 L 118110 -85341.7 A 3428.9000015 3428.9000015 0 0 1 114681 -88770.649 L 114681 -116964.649" fill="none" stroke-width="100"/></clipPath><mask id="Sz--XXwV4Z8LgDZ1HzTH_bottom_mech-mask"><g fill="#000" stroke="#000"><rect x="114680.9999985" y="-120396.053" width="88013.3530015" height="35054.4040004" fill="#fff"/><use xlink:href="#Sz--XXwV4Z8LgDZ1HzTH_bottom_drill1"/></g></mask><mask id="Sz--XXwV4Z8LgDZ1HzTH_bottom_cf-mask"><g fill="#fff" stroke="#fff"><use xlink:href="#Sz--XXwV4Z8LgDZ1HzTH_bottom_soldermask"/></g></mask><mask id="Sz--XXwV4Z8LgDZ1HzTH_bottom_sm-mask"><g fill="#000" stroke="#000"><rect x="114680.9999985" y="-120396.053" width="88013.3530015" height="35054.4040004" fill="#fff"/><use xlink:href="#Sz--XXwV4Z8LgDZ1HzTH_bottom_soldermask"/></g></mask></defs><g transform="translate(0,-205737.7019996) scale(1,-1)"><g mask="url(#Sz--XXwV4Z8LgDZ1HzTH_bottom_mech-mask)" clip-path="url(#Sz--XXwV4Z8LgDZ1HzTH_bottom_outline)" transform="translate(317375.3529985,0) scale(-1,1)"><rect x="114680.9999985" y="-120396.053" width="88013.3530015" height="35054.4040004" fill="currentColor" class="Sz--XXwV4Z8LgDZ1HzTH_fr4"/><use xlink:href="#Sz--XXwV4Z8LgDZ1HzTH_bottom_copper" fill="currentColor" stroke="currentColor" class="Sz--XXwV4Z8LgDZ1HzTH_cu"/><use xlink:href="#Sz--XXwV4Z8LgDZ1HzTH_bottom_copper" fill="currentColor" stroke="currentColor" class="Sz--XXwV4Z8LgDZ1HzTH_cf" mask="url(#Sz--XXwV4Z8LgDZ1HzTH_bottom_cf-mask)"/><g mask="url(#Sz--XXwV4Z8LgDZ1HzTH_bottom_sm-mask)"><rect x="114680.9999985" y="-120396.053" width="88013.3530015" height="35054.4040004" fill="currentColor" class="Sz--XXwV4Z8LgDZ1HzTH_sm"/></g></g></g></svg>